<svg aria-hidden="true" style="position:absolute;width:0;height:0;overflow:hidden" xmlns="http://www.w3.org/2000/svg"><defs><symbol id="icon-antena" viewBox="0 0 72 32"><path fill="#f5f4fa" style="fill:var(--color1, #f5f4fa)" d="M1 0h70c.5 0 1 .5 1 1v30c0 .5-.5 1-1 1H1a1 1 0 0 1-1-1V1c0-.5.5-1 1-1z"/><path fill="#212121" style="fill:var(--color2, #212121)" d="m44.6 19.5-5-5 .6-2.6.5.1a1.3 1.3 0 1 0-1.2-.8l-2.9.3L32 6.7h-.4l-1 1V8l.6.5c-.7 1.2-1 2.6-1 4.1 0 2.4 1 4.6 2.5 6.2v4h-3.7c-1 0-1.6.6-1.6 1.5v.6c0 .2.1.3.3.3h14.3c.2 0 .3-.1.3-.3v-.6c0-.9-.7-1.5-1.5-1.5h-3.8v-1.6a8.6 8.6 0 0 0 6-1l-.1.1.5.5h.4l1-.9v-.5zm-4.3-9.2a.6.6 0 1 1 .4 1 .6.6 0 0 1-.4-1zm-.8 2-.3 1.8-.7-.7 1-1zm-.3-.5L38.1 13l-.9-.8 2-.3zm1.5 11.7c.5 0 1 .4 1 .9v.3H27.8v-.3c0-.5.4-1 1-1h11.8zm-4.4-1.3v.7h-3v-.7h3zm-3.1-.6v-2.4c0-.7.7-1.3 1.5-1.3 1 0 1.6.6 1.6 1.3v2.4h-3.1zm3.7-1v-1.4c0-1-1-2-2.2-2-.7 0-1.4.4-1.8 1A8 8 0 0 1 31.5 9l10.9 11a8 8 0 0 1-5.5.7zm6.6-.4-.4-.4L31.7 8.3l-.5-.4.5-.5 4.6 4.7 7.7 7.6-.5.5z"/><path fill="#2196f3" style="fill:var(--color3, #2196f3)" d="M34.8 18.5a1 1 0 0 0 0 1.8 1 1 0 0 0 0-1.8zm.2 1.2h-.3a.3.3 0 0 1 0-.6.3.3 0 0 1 .3.6z"/></symbol><symbol id="icon-clock" viewBox="0 0 72 32"><path fill="#f5f4fa" style="fill:var(--color1, #f5f4fa)" d="M1 0h70c.5 0 1 .5 1 1v30c0 .5-.5 1-1 1H1a1 1 0 0 1-1-1V1c0-.5.5-1 1-1z"/><path fill="#212121" style="fill:var(--color2, #212121)" d="M45 15.6A9 9 0 1 0 33.2 24h.3l.2-.3 2.2-7a1.1 1.1 0 1 0-.5-2.2l-3-3a.4.4 0 0 0-.5.5l3 3-.1.5c0 .3.1.7.4.9l-2.1 6.8a8.2 8.2 0 1 1 6.2-.3l-.3-1a.4.4 0 0 0-.6-.2l-2.3 2a.4.4 0 0 0 .2.6l2.8 1a.4.4 0 0 0 .5-.5l-.2-1a9 9 0 0 0 5.4-8.3zm-9-.4a.4.4 0 0 1 0 .7.4.4 0 0 1 0-.7zm1.2 8.7 1.3-1.2.4 1.7-1.7-.6z"/><path fill="#2196f3" style="fill:var(--color3, #2196f3)" d="M35.6 8.5v.8a.4.4 0 0 0 .8 0v-.8a.4.4 0 0 0-.8 0zM29 15.2a.4.4 0 1 0 0 .8h.8a.4.4 0 0 0 0-.8h-.8zm14.2.8a.4.4 0 0 0 0-.8h-.8a.4.4 0 0 0 0 .8h.8z"/></symbol><symbol id="icon-comp" viewBox="0 0 72 32"><path fill="#f5f4fa" style="fill:var(--color1, #f5f4fa)" d="M1 0h70c.5 0 1 .5 1 1v30c0 .5-.5 1-1 1H1a1 1 0 0 1-1-1V1c0-.5.5-1 1-1z"/><path fill="#2196f3" style="fill:var(--color3, #2196f3)" d="M35.4 15.4h.6v2.8h-.6v-2.8zm2.5 1.2h.6v1.6h-.6v-1.6zm-5 1h.6v.6H33v-.6zm-1.9-.3h.7v.9H31v-1z"/><path fill="#212121" style="fill:var(--color2, #212121)" d="M27.6 23.2h15c.4 0 .9-.5.9-1V21c0-.5-.5-1-1-1h-.3v-7.7l1.8-1.7.4.1a1 1 0 1 0-.9-.5l-1.3 1.2v-.7c0-.5-.4-1-1-1H29a1 1 0 0 0-1 1v9.4h-.3a1 1 0 0 0-1 .9v1.2c0 .6.5 1 1 1zM44.4 9.5a.3.3 0 1 1 0 .6l-.2-.3c0-.1 0-.3.2-.3zm-15.9 1.2c0-.1.2-.3.4-.3h12.4l.3.3v1.4l-.6.5v-1.2c0-.2-.2-.4-.3-.4H29.5c-.2 0-.4.2-.4.4V19c0 .2.2.3.4.3h11.2c.1 0 .3 0 .3-.3v-5.6l.6-.6v7.2h-13v-9.4zm2.8 4a1 1 0 1 0 .7 1.7l1 .5h.4l2.3-2.6 2.3 1.6c.1.2.3.1.4 0l2-1.8v4.7H29.7v-7.1h10.5v1.5l-2.1 2.1-2.3-1.7a.3.3 0 0 0-.5 0l-2.3 2.7-.9-.5c0-.6-.4-1-.9-1zm.4 1a.3.3 0 1 1-.7 0 .3.3 0 1 1 .7 0zm1.8 5h3.1v.3c0 .2-.1.3-.3.3h-2.5c-.1 0-.3-.1-.3-.3v-.3zm-6.2.3c0-.2.1-.3.3-.3h5.3v.3c0 .5.4 1 1 1h2.4c.5 0 1-.5 1-1v-.3h5.2c.2 0 .3.1.3.3v1.2c0 .2-.1.4-.3.4H27.6a.3.3 0 0 1-.3-.4V21z"/></symbol><symbol id="icon-cosm" viewBox="0 0 72 32"><path fill="#f5f4fa" style="fill:var(--color1, #f5f4fa)" d="M1 0h70c.5 0 1 .5 1 1v30c0 .5-.5 1-1 1H1a1 1 0 0 1-1-1V1c0-.5.5-1 1-1z"/><path fill="#2196f3" style="fill:var(--color3, #2196f3)" d="m45.3 9.3-.2-.2-1.2-.2-.4-1c-.1-.2-.5-.2-.6 0l-.5 1-1 .2a.3.3 0 0 0-.3.5l.8.8-.2 1.1a.3.3 0 0 0 .5.3l1-.5 1 .5h.1a.3.3 0 0 0 .3-.3l-.2-1.1.8-.8c.1 0 .2-.2.1-.3zm-1.4.8-.1.2v.7l-.5-.3a.3.3 0 0 0-.3 0l-.5.3V10.1l-.5-.5h.6l.3-.2.3-.6.3.5.2.2.6.1-.4.5zm-2 8.5h-.6v.7h.6v-.6zm0 1.3h-.6v.6h.6V20zm.6-.6H42v.6h.6v-.6zM41.3 19.3h-.6v.6h.6v-.6zM39.7 22h-.6v.6h.6V22zm0 1.2h-.6v.6h.6v-.6zm.6-.6h-.6v.6h.6v-.6zm-1.2 0h-.6v.6h.6v-.6zM36 20.8h-.6v.6h.6v-.6zm0 1.3h-.6v.6h.6V22zm.6-.7H36v.7h.6v-.7zm-1.2 0h-.7v.7h.7v-.7zM30 10.2h-.6v.7h.6v-.7zm0 1.3h-.6v.6h.6v-.6zm.6-.6h-.6v.6h.6v-.6zm-1.2 0h-.6v.6h.6v-.6z"/><path fill="#212121" style="fill:var(--color2, #212121)" d="M41 15a1 1 0 0 0-.6-.5c-.3 0-.6 0-.8.2l-.7.6-1.1.8-.8-.3A4 4 0 0 0 35.3 8a4 4 0 0 0-3.4 6.2h-1.8l-1.8 1-1.2.5a1 1 0 1 0 1 1.8l.9-.5 1.3-.6h.8l-3.2 3.1-.8.8a1 1 0 0 0 0 1.4 1 1 0 0 0 1.4 0l.8-.8 1-.7.5.5-1 1-.8.8a1 1 0 0 0 0 1.3 1 1 0 0 0 1.4 0l.8-.7 1.3-1.3.5-.5 3-3.3 2 .2h.2l2-1.2.8-.8a1 1 0 0 0 0-1.3h.1zm-13 2h-.4a.4.4 0 0 1-.1-.7l.7-.4.2.6v.2l-.5.3zm2-1-1 .4V16l-.2-.3L30 15v.9zm8.7-3.9c0 .5 0 1-.3 1.5L36 12.5a1 1 0 0 0-.5-.8l.9-2.8c1.4.4 2.4 1.7 2.4 3.2zm-6.8 0a3.4 3.4 0 0 1 3.9-3.4l-.9 2.8a1 1 0 0 0-1.1 1v.2a1 1 0 0 0 2 .4l2.3 1a3.4 3.4 0 0 1-6.2-2zm3.5.5c0 .2-.3.4-.5.4s-.5-.2-.5-.4a.5.5 0 0 1 1 0zM28 21.4h-.5a.3.3 0 0 1 0-.6l.6-.5.5.5-.6.5zm1.9 2c-.2.3-.4.3-.5 0a.3.3 0 0 1 0-.4l.5-.5.3.2.3.3-.6.5zm2-2-1 1.1-.3-.2-.2-.3 1-1v-.2h.1v-.2l-1-1h-.4l-1 .7-.6-.5 1.4-1.4 2.6 2.5-.6.6zm4-4h-.3L33 20.6l-2.6-2.4 1.7-1.7v-.2c0-.2 0-.3-.2-.3h-1.3v-1h1.8a4 4 0 0 0 3.6 1.2h.1l1.4.6.1.4.1.6-1.7-.3zm2.3 0-.1-.8.8-.6.2.2.3.5-1.2.8zm2.2-1.6-.4.5-.6-.7.5-.4h.3a.4.4 0 0 1 .3.6z"/><path fill="#212121" style="fill:var(--color2, #212121)" d="m34.6 17.5-1.2-1.3a.3.3 0 0 0-.5 0l-1.2 1.3-.1.2v.2l1.3 1.3a.3.3 0 0 0 .5 0l1.2-1.3.1-.2v-.2zm-1.5 1-.8-.8.8-.8.8.8-.8.8zm3.6-8.9-.2.6s1 .3 1 1.3h.7c0-1.2-1-1.7-1.5-1.9zm1.5 2.5h-.7v.6h.7v-.6z"/></symbol><symbol id="icon-mail" viewBox="0 0 43 32"><path d="M38.7 0H4C1.9 0 0 1.9 0 4v24c0 2.1 1.9 4 4 4h34.7c2.1 0 4-1.9 4-4V4c0-2.1-1.9-4-4-4zm0 2.7h.5L21.3 18 3.5 2.7h35.2zm0 26.6H4c-.7 0-1.3-.6-1.3-1.3V5.6l17.8 15.5.8.2.8-.2L40 5.3v22.4c0 .8-.5 1.4-1.3 1.4z"/></symbol><symbol id="icon-phone" viewBox="0 0 20 32"><path d="M17 0H3a3 3 0 0 0-3 3v26a3 3 0 0 0 3 3h14a3 3 0 0 0 3-3V3a3 3 0 0 0-3-3zM3 2h14c.6 0 1 .4 1 1v21H2V3c0-.6.4-1 1-1zm14 28H3a1 1 0 0 1-1-1v-3h16v3c0 .6-.4 1-1 1z"/><path fill="#757575" style="fill:var(--color4, #757575)" d="M4.8 27.4v1.4c-.4.4-1.2.4-1.6 0a.8.8 0 0 1 0-1.4c.4-.2 1.2-.2 1.6 0z"/></symbol><symbol id="icon-instagram" viewBox="0 0 32 32"><path d="M32 9.4c0-1.6-.3-2.8-.8-3.8-.3-1.1-1-2-1.8-2.9A8 8 0 0 0 26.6.8 105.7 105.7 0 0 0 5 .8h.5a9 9 0 0 0-2.9 2A8 8 0 0 0 1 5.3C.5 6.6 0 7.7 0 9.6a106.3 106.3 0 0 0 .9 17.7l-.1-.6c.4 1 1 2 1.8 2.7a8 8 0 0 0 2.8 2c1 .3 2.1.6 3.9.6a112.7 112.7 0 0 0 17.6-.7h-.5c2.2-.8 4-2.5 4.8-4.7l.6-3.9A113.7 113.7 0 0 0 32 9.3v.3zm-2.9 13c0 1.6-.3 2.4-.6 3a4.8 4.8 0 0 1-3 3c-.5.2-1.3.6-3 .6a108.1 108.1 0 0 1-16.4-.6h.5c-.7-.2-1.3-.6-1.8-1a6 6 0 0 1-1.1-2c-.3-.4-.7-1.4-.7-3A109.7 109.7 0 0 1 3.7 6v.6c.1-.7.6-1.3 1.1-1.8.5-.6 1.1-1 1.8-1.3.6-.1 1.6-.5 3.2-.5a108 108 0 0 1 16.1.6h-.5a4 4 0 0 1 2 1.2c.4.5 1 1.1 1 1.8.4.6.6 1.4.7 3l.2 6.4-.2 6.7v-.3z"/><path d="M16 7.8h-1.1A8.2 8.2 0 1 0 16 24a8.2 8.2 0 0 0 0-16zm0 13.5a5.3 5.3 0 0 1 0-10.6 5.3 5.3 0 0 1 0 10.6zM26.6 7.5a2 2 0 0 1-3.9 0 2 2 0 0 1 3.9 0z"/></symbol><symbol id="icon-twitter" viewBox="0 0 32 32"><path d="M32 6c-1.1.6-2.4.9-3.8 1 1.3-.7 2.3-2 2.8-3.4-1.2.7-2.5 1.2-4.1 1.5a6.5 6.5 0 0 0-11.2 6A18.5 18.5 0 0 1 2.2 4c-.5 1-.9 2.1-.9 3.4 0 2.3 1.2 4.3 3 5.4-1.1 0-2.1-.2-3-.8 0 3.3 2.2 6 5.3 6.5a6.3 6.3 0 0 1-3.1.1c1 2.7 3.2 4.7 6.3 4.7A13 13 0 0 1-.1 26H0a18 18 0 0 0 10 2.7A18.6 18.6 0 0 0 28.7 9.6c1.5-1 2.4-2 3.4-3.4z"/></symbol><symbol id="icon-facebook" viewBox="0 0 32 32"><path d="M21.3 5.3h3V.2L20 0c-4.2 0-7 2.7-7 7.5V12H8v5.8h4.8V32h5.6V17.6h4.5l.8-5.6h-5.3V8.2c0-1.6.5-3 2.7-3z"/></symbol><symbol id="icon-linkedin" viewBox="0 0 32 32"><path d="M32 32V20.3c0-5.7-1.3-10.2-8-10.2a7 7 0 0 0-6.2 3.5v-3h-6.6V32h6.6V21.4c0-2.8.4-5.4 4-5.4 3.3 0 3.5 3.2 3.5 5.6V32H32zM.5 10.6h6.7V32H.5V10.6zM3.8 0C1.8 0 0 1.6 0 3.8 0 6 1.6 7.7 3.8 7.7a3.8 3.8 0 1 0 0-7.7z"/></symbol><symbol id="icon-yaco" viewBox="0 0 57 32"><path d="M20.3 3.7 24 7.3h-7v17.1h18.2V18l3.7 3.5V3.7H20.3zM35 17.4l-10.6-10H35v10zM31.7 22H20V10.4h.8v10.7h11v.8zm-9 4.8-.4 1-.4-1h-.4l.6 1.1v.8h.4v-.8l.6-1.1h-.4zm.6 2 .1-.5h.8l.1.4h.3l-.6-2h-.3l-.8 2h.4zm.5-1.6.3.8h-.6l.3-.8zm1.7.7v.3c0 .2 0 .3.2.4l.4.1.5-.1v.1h.4l-.2-.3.1-.6h-.2l-.1.4-.4-.5h.1l.2-.2v-.6h-.7l-.2.4v.2l.2.2a1 1 0 0 0-.3.2zm.9.5h-.5l-.1-.2.1-.3.5.5zm-.4-.8V27h.3V27.3l-.2.2zm3.1 1c.2-.1.2-.3.2-.5H29v.3h-.7l-.1-.6v-.1l.1-.5.3-.1h.3l.1.4h.3c0-.3 0-.4-.2-.6h-.9l-.3.3v1.1l.3.3.4.1.5-.1zm2-.3v-1.1a.7.7 0 0 0-.7-.4l-.4.1-.3.3-.1.5v.1l.1.5c0 .2.2.3.3.3l.4.1h.4l.3-.4zm-.4-1 .1.4v.6l-.4.2c-.2 0-.3 0-.4-.2v-1.1l.4-.1.3.1z"/></symbol><symbol id="icon-company" viewBox="0 0 57 32"><path d="M26.7 3.2H25.4c-2 0-3.9.5-5.6 1.3l-.3.1v12l.6-.3a20 20 0 0 1 5.8-1V17h-.6c-2.7.1-5.2.9-7.4 2h.1V3.8c2.3-1.4 5-2.2 8-2.2h.3c1 0 2 .2 2.9.4H29v1.5l-2-.3h-.4zm2.7 1.5h1c3 0 5.8-.7 8.2-2v14.9a15.7 15.7 0 0 1-11.2 1.8h.1v-15c.6.2 1.2.3 2 .3zM37 5l-.6.1-1.5.5a17.8 17.8 0 0 1-5.5.5h-.3v12.1h.3l1 .1c2.4 0 4.5-.5 6.5-1.5h-.1.2V4.8zM19 24.1a.8.8 0 0 0-.5-.2h-.4a.8.8 0 0 0-.5.8v2l.1.4c0 .2.1.3.2.3l.3.2h.6c.3-.2.5-.5.5-.8v-.2h-.5v.3l-.2.2h-.2l-.2-.1v-2.5l.2-.2c.1 0 .2 0 .3.2v.4h.6v-.2a1 1 0 0 0-.3-.6zm3.2 0a1 1 0 0 0-1-.2l-.2.2-.2.3V27l.2.3.3.1a.9.9 0 0 0 .6 0l.3-.1c.2-.2.3-.4.3-.7v-2l-.1-.3-.2-.3zm-.2 2.6-.1.3a.4.4 0 0 1-.6 0v-2.5a.4.4 0 0 1 .6 0v2.2zm4.3.9v-3.7h-.5l-.6 2-.7-2h-.6v3.7h.6v-2.3L25 27h.3l.5-1.6v2.3h.5zm3-3.4-.3-.3h-1.2v3.7h.6V26h.7l.3-.3.1-.4a2.6 2.6 0 0 0 0-1l-.2-.2zm-.2 1v.3l-.2.1a.5.5 0 0 1-.3 0h-.2v-1.2h.5l.1.2v.7zm2.7-1.3h-.4l-.8 3.7h.5l.2-.8h.6l.2.8h.5l-.8-3.7zm-.5 2.4.3-1.3.2 1.3h-.5zm3.9-.2-.9-2.2H34v3.7h.5v-2.2l.8 2.2h.5v-3.7h-.5V26zm3.2-2.2-.4 1.4-.5-1.4H37l.7 2.1v1.6h.5V26l.7-2.1h-.5zm-20.8 4.7h.3v.7h.1v-.7h.3v-.1h-.7zm2.1-.1-.3.8h.2v-.2h.4v.2h.3l-.4-.8h-.2zm0 .5v-.4l.2.4h-.2zm2.2 0h.1v.1H21.7l-.2-.2c0-.2.2-.3.3-.3l.2.1h.2c0-.2-.2-.3-.4-.3l-.3.1a.4.4 0 0 0-.1.4v.3l.4.1.4-.1v-.3h-.4v.1zm2.1-.5h-.2v.8h.6v-.1H24v-.7zm1.8 0h-.2v.8h.2v-.8zm1.7.5-.3-.5H27v.8h.2v-.5l.3.5h.2v-.8h-.2v.5zm1.6 0h.4v-.2h-.4v-.2h.5v-.1H29v.8h.6v-.1h-.5V29zm4-.2h-.4v-.3h-.2v.8h.2V29h.3v.3h.2v-.8H33v.3zm1.6.2h.3v-.2h-.3v-.2h.4v-.1h-.6v.8h.6v-.1h-.4V29zm2.1 0c.2 0 .2-.1.2-.3v-.2h-.7v.8h.2V29h.1l.3.3h.2v-.1l-.3-.2zm-.2-.2v-.2h.2a.1.1 0 0 1 0 .2s-.1 0-.2 0zm1.9.2h.4v-.2h-.4v-.2h.4v-.1h-.6v.8h.6v-.1h-.4V29z"/></symbol><symbol id="icon-company_two" viewBox="0 0 57 32"><path d="M19.4 26.2h.2l-.3.3-.5.1h-.5l-.3-.3-.2-.3a1 1 0 0 1 0-.8l.2-.3.4-.2a1.3 1.3 0 0 1 .9 0l.3.2-.1.1h-.2a.8.8 0 0 0-.4-.1h-.4l-.3.2-.1.2v.7l.1.2.3.1h.5l.4-.1zm3.4-.6v.4l-.3.3-.4.2h-.9a1 1 0 0 1-.3-.2l-.2-.3a1 1 0 0 1 0-.8l.2-.3.3-.2h1l.3.2c.1.2.3.4.3.7zm-.3 0v-.3L22 25a1 1 0 0 0-.6 0l-.3.2-.1.2v.6c0 .2.2.4.4.4h.6l.2-.1.2-.3v-.2zm2.6.4v-.1l.8-1.2h.4v1.9H26V25l-.7 1.1H25l-1-1.1v1.5H24v-1.9h.3L25 26v.1zm2.7-.1v.7h-.2v-2h1l.3.3v.1l.1.3v.2l-.2.2-.2.1h-.8zm0-.2h.6l.2-.2V24.8l-.4-.1h-.4v.8zm4 .9h-.3l-.2-.6h-1l-.3.6h-.3l.9-2h.3l.9 2zm-1.5-.7h.8l-.3-.8V25v.2l-.5.8zm2.8-1.2 1.2 1.4v-1.4h.3v1.9h-.2L33.1 25v1.4h-.3v-1.9h.2zm3.6 1.1v.8h-.2v-.8l-.9-1.1h.4l.5.8v.1h.1v-.1l.6-.8h.3l-.7 1.1zM25 21.5h.4c2-.8 3.6-2 4.8-3.6a8.5 8.5 0 0 0 1.7-5.3l-2.1-1.8a9.4 9.4 0 0 1-.7 6v-.1c-.9 2-2.3 3.6-4 4.8z"/><path  d="M24.2 21.3c2-1.1 3.5-2.8 4.3-4.8s1-4.2.4-6.2l-3-2.7a11.4 11.4 0 0 1-1.7 13.7zm10.4-6.5c-.6 2.2-1.9 4-3.6 5.3l-1.8 1.1c1.6-.4 3-1 4.1-2 1-1 2-2 2.5-3.3l-1.2-1z"/><path d="M34.1 14.6 32.3 13c0 1.8-.6 3.5-1.6 5s-2.6 2.7-4.4 3.5h1.2c1.7-.6 3.2-1.6 4.3-2.8a9 9 0 0 0 2.3-4v-.1zm-9.7-8-2.1-2a10 10 0 0 0-4.7 3.2 7.8 7.8 0 0 0 .4 10.3c1.4 1.6 3.3 2.7 5.5 3.2a11.3 11.3 0 0 0 .9-14.8zM39 14.1c0-2.3-1-4.5-3-6A10.9 10.9 0 0 0 25.4 6l13 11.3c.5-1 .7-2 .7-3.2z"/></symbol><symbol id="icon-foster" viewBox="0 0 57 32"><path d="M12.9 11.3c-1.3 0-2.3.9-2.3 2 0 1.2 1 2 2.3 2 1.2 0 2.3-.8 2.3-2 0-1.1-1-2-2.3-2zm17-.7c0-1.6-.6-3-1.9-4.3a7.2 7.2 0 0 0-9.5 0c-1.2 1.2-2 2.8-2 4.3v8.7S30 18 30 10.6zM6 22.1a4 4 0 0 0 1.4 3 5 5 0 0 0 3.2 1.2c1.3 0 2.5-.4 3.3-1.2a4 4 0 0 0 1.4-3v-6s-9.3 1-9.3 6zm4.6 1.1c-.2 0-.5 0-.6-.2a1 1 0 0 1-.5-.4V22c0-.2 0-.5.3-.6.1-.2.4-.3.6-.3h.7l.5.4a1 1 0 0 1 0 1.4l-.5.2-.5.2zm9.4-.5H19v.9h-.3v-2.3H20v.5h-1v.5h.9v.4zm2.3-.2-.1.5a1 1 0 0 1-.8.6l-.6-.1-.3-.4-.1-.6v-.7c.2-.3.5-.5.9-.5h.6c0 .2.2.4.3.5v.7zm-.4-.1c0-.3 0-.4-.2-.5 0-.2-.2-.2-.4-.2-.1 0-.2 0-.3.2l-.2.5v.1c0 .2 0 .4.2.5l.3.2c.1 0 .3 0 .4-.2l.2-.5v-.1zm2 .5-.2-.1-.3-.2a.6.6 0 0 1-.4-.1c-.2-.2-.4-.4-.4-.6l.1-.3.3-.3h.9l.3.3.1.4h-.5v-.3a.4.4 0 0 0-.3 0H23l-.1.2v.2l.4.1c.3 0 .5.2.6.3.2.2.2.3.2.5l-.2.5-.6.1h-.5l-.3-.3-.1-.4h.4c0 .2.2.4.5.4 0 0 .2 0 .2-.2l.1-.1zm2.4-1.2h-.7v1.9h-.4v-1.9h-.7v-.4h1.8v.4zm1.6 1H27v.5h1v.4h-1.5v-2.3H28v.5H27v.5h.9v.4zm1.3 0h-.3v.9h-.4v-2.3h.8l.6.2c.2.2.2.3.2.6v.4l-.3.2.4 1h-.5l-.4-1zm-.3-.3h.7v-.6h-.7v.6zm2.9.4v.8H31v-2.3h1l.4.1.4.3v.4c0 .2 0 .4-.2.6l-.6.1h-.4zm0-.3h.4c.1 0 .2 0 .3-.2V22l-.3-.1h-.4v.6zm3 .2h-1v.6h1v.3h-1.4v-2.3h1.4v.5h-1.1v.5h1v.4zm2.1-1h-.7v2h-.5v-2H35v-.4h1.9v.5zm1.6 1h-.9v.6h1.1v.3h-1.5v-2.3h1.5v.5h-1v.5h.8v.4zm1.3 0h-.3v1h-.6v-2.4h1l.5.2c.2.2.2.3.2.6v.4l-.3.2.5 1h-.5l-.5-1zm-.3-.3h.6l.1-.3-.1-.3h-.6v.6zm2.7.6v-.2l-.4-.1-.4-.2a.6.6 0 0 1-.4-.5l.1-.3c0-.2.2-.3.3-.3h.9l.3.3v.3h-.4l-.1-.2a.4.4 0 0 0-.3 0h-.3v.2l.1.1.3.2c.3 0 .4.2.5.3.2.1.3.2.3.4l-.3.5-.5.2-.6-.1-.3-.3-.1-.4h.5c0 .2.1.4.5.4l.2-.1V23z"/></symbol><symbol id="icon-brand" viewBox="0 0 57 32"><path  d="m14.3 23.8.2.6-.1.3-.2.3c-.3.2-.6.3-1 .3h-1.5V22h1.5c.3 0 .7 0 .9.2l.2.3.1.3c0 .2 0 .4-.2.6l-.4.2.5.2zm-1.8-.4h.6l.4-.1.1-.2V22.8l-.1-.2h-1v.8zm1 1.2.2-.1V24l-.1-.2h-1.1v.8h1.1zm3.9.7-.9-1.3h-.3v1.3h-.7V22h1.4c.3 0 .6 0 1 .2l.2.7c0 .2 0 .6-.2.7-.1.2-.4.3-.6.3l.9 1.4h-.8zm-1.2-1.8h.6c.4 0 .6-.1.6-.5v-.2l-.1-.1-.5-.2h-.6v1zm5.1 1.1H20l-.3.7H19l1.3-3.3h.8l1.3 3.3h-.7l-.3-.7zm-.2-.5-.5-1.4-.5 1.4h1zm5.2 1.2h-.7L24 23v2.3h-.7V22h.6l1.6 2.2V22h.8v3.3zm4.1-.8-.6.6-1 .2h-1.3V22h1.3c.4 0 .7 0 1 .2.3 0 .5.3.7.5l.2.9-.3.9zm-.8 0a1.2 1.2 0 0 0 0-1.7c-.3-.2-.5-.3-1-.2h-.4v2h.5c.3 0 .6 0 .9-.2zM21.8 3.5s9.3 3.2 9 7.9v7.9s-9.2-3.2-9-8V3.7zm17.4 13.9a14 14 0 0 1 5.9-2v-2.4a12 12 0 0 0-5.9 4.4z"/><path d="M38.1 18.2c1.5-2.6 4-4.7 7-5.7v-7S31.8 10 32 16.5v11.2l1.6-.5v-1.1c.3-3.1 1.9-6 4.4-8z"/><path  d="M36.9 22.4c0-.7.2-1.5.4-2.3a10.3 10.3 0 0 0-2.8 6.8l2.6-1.2c-.2-1.1-.4-2.2-.2-3.2zm.5 0a9.8 9.8 0 0 0 .2 3c3.6-2 7.6-5 7.5-8.8v-.3c-2.6.3-5 1.3-7 3-.3 1-.6 2-.7 3.2z"/></symbol><symbol id="icon-tag-line" viewBox="0 0 57 32"><path d="M28.5 14.6a1.6 1.6 0 0 1-.3-1V12c0-.4 0-.8.3-1 .2-.3.6-.4 1-.4.6 0 1 0 1.1.3.3.2.4.6.3.9v.4h-.8v-.7l-.2-.2-.3-.2c-.1 0-.2 0-.3.2-.1 0-.2 0-.2.2v2.7l.3.1.2.1.3-.1.1-.2v-.8h1v.4l-.3 1c-.2.2-.6.3-1.1.3s-1-.1-1-.4zm3.7 0c-.3-.2-.4-.5-.4-1v-1.7c0-.4 0-.8.4-1 .2-.2.5-.3 1-.3s1 .1 1.1.3c.3.2.4.6.4 1.1v1.6c0 .4-.1.8-.4 1-.2.3-.5.4-1 .4-.6 0-1-.1-1.1-.4zm1.5-.4v-2.9l-.2-.1a.5.5 0 0 0-.3 0 .5.5 0 0 0-.2 0l-.1.1c-.2.2-.2.3-.2.5v2c0 .1 0 .3.2.5l.1.1a.6.6 0 0 0 .5 0l.2-.2zm2-3.5h1l.7 2.9.7-3h1V15h-.6l-.2-3-.6 3H37l-.7-3-.1 3h-.7v-4.2zm4.5 0h1.5c.8 0 1.2.3 1.2 1.1s-.4 1.2-1.3 1.2h-.5v2h-1v-4.3zm1.2 1.8h.3l.2-.2.2-.5v-.3l-.1-.1-.2-.1c0-.1-.3-.2-.4-.1h-.3v1.3h.3zm2.9-1.8h.9l1 4.2h-.9l-.1-1h-1l-.1 1h-.9l1-4.2zm.8 2.7-.4-1.8-.3 1.8h.7zm1.9-2.7h.6L49 13v-2.4h.7v4.2H49l-1.2-2.5v2.5h-.9v-4.2zm4.4 2.6-1-2.6h.8l.6 1.6.6-1.7h.8l-1 2.7v1.6h-.8v-1.6zm-21.5 3.5v.3h-.7v1.7h-.4V17h-.7v-.3h1.8zm2.3 2h-.4l-.2-.6h-1l-.2.6h-.3l.9-2h.3l1 2zm-1.5-.7h.9l-.4-.8v-.2.1l-.1.1-.4.8zm3 .5h.6V18H34V18h.7v.7l-.6.2h-.7a1 1 0 0 1-.4-.2l-.2-.4-.1-.4v-.4l.3-.3.4-.2a1.5 1.5 0 0 1 .7-.1c.2 0 .3 0 .4.2h.2l-.1.2h-.2L34 17a1 1 0 0 0-.3-.1 1 1 0 0 0-.4 0l-.3.2-.1.2v.7c0 .1 0 .2.2.3l.5.2zm3 0h1v.2h-1.3v-2h.2v1.8zm2 .2h-.3v-2h.3v2zm1.1-2 1.4 1.5v-1.5h.3v2h-.3L40 17.3v1.5h-.3v-2h.2zm4 0v.2h-1.1v.7h.8v.2h-.8v.7h1v.2h-1.4v-2h1.4zM11.2 4.6 25.1 8v11.7l-13.8-3.3V4.6zm-.9-1V17l15.5 3.7V7.5L10.5 3.6z"/><path d="M18.7 27 3.2 23.3V9.8l15.5 3.9V27z"/><path d="m10.7 4.5 13.5 3.3-5.7 5L4.9 9.4l5.8-5zm-.3-.9L3.2 9.8l15.5 3.9L26 7.4 10.5 3.6zm9.2 22.7 6.4-5.5-6.4-1.5v7z"/></symbol><symbol id="icon-instagram-foot" viewBox="0 0 32 32"><path d="M32 9.4c0-1.6-.3-2.8-.8-3.8-.3-1.1-1-2-1.8-2.9A8 8 0 0 0 26.6.8 105.7 105.7 0 0 0 5 .8h.5a9 9 0 0 0-2.9 2A8 8 0 0 0 1 5.3C.5 6.6 0 7.7 0 9.6a106.3 106.3 0 0 0 .9 17.7l-.1-.6c.4 1 1 2 1.8 2.7a8 8 0 0 0 2.8 2c1 .3 2.1.6 3.9.6a112.7 112.7 0 0 0 17.6-.7h-.5c2.2-.8 4-2.5 4.8-4.7l.6-3.9A113.7 113.7 0 0 0 32 9.3v.3zm-2.9 13c0 1.6-.3 2.4-.6 3a4.8 4.8 0 0 1-3 3c-.5.2-1.3.6-3 .6a108.1 108.1 0 0 1-16.4-.6h.5c-.7-.2-1.3-.6-1.8-1a6 6 0 0 1-1.1-2c-.3-.4-.7-1.4-.7-3A109.7 109.7 0 0 1 3.7 6v.6c.1-.7.6-1.3 1.1-1.8.5-.6 1.1-1 1.8-1.3.6-.1 1.6-.5 3.2-.5a108 108 0 0 1 16.1.6h-.5a4 4 0 0 1 2 1.2c.4.5 1 1.1 1 1.8.4.6.6 1.4.7 3l.2 6.4-.2 6.7v-.3z"/><path d="M16 7.8h-1.1A8.2 8.2 0 1 0 16 24a8.2 8.2 0 0 0 0-16zm0 13.5a5.3 5.3 0 0 1 0-10.6 5.3 5.3 0 0 1 0 10.6zM26.6 7.5a2 2 0 0 1-3.9 0 2 2 0 0 1 3.9 0z"/></symbol><symbol id="icon-twitter-foot" viewBox="0 0 32 32"><path d="M32 6c-1.1.6-2.4.9-3.8 1 1.3-.7 2.3-2 2.8-3.4-1.2.7-2.5 1.2-4.1 1.5a6.5 6.5 0 0 0-11.2 6A18.5 18.5 0 0 1 2.2 4c-.5 1-.9 2.1-.9 3.4 0 2.3 1.2 4.3 3 5.4-1.1 0-2.1-.2-3-.8 0 3.3 2.2 6 5.3 6.5a6.3 6.3 0 0 1-3.1.1c1 2.7 3.2 4.7 6.3 4.7A13 13 0 0 1-.1 26H0a18 18 0 0 0 10 2.7A18.6 18.6 0 0 0 28.7 9.6c1.5-1 2.4-2 3.4-3.4z"/></symbol><symbol id="icon-facebook-foot" viewBox="0 0 32 32"><path d="M21.3 5.3h3V.2L20 0c-4.2 0-7 2.7-7 7.5V12H8v5.8h4.8V32h5.6V17.6h4.5l.8-5.6h-5.3V8.2c0-1.6.5-3 2.7-3z"/></symbol><symbol id="icon-linkedin-foot" viewBox="0 0 32 32"><path d="M32 32V20.3c0-5.7-1.3-10.2-8-10.2a7 7 0 0 0-6.2 3.5v-3h-6.6V32h6.6V21.4c0-2.8.4-5.4 4-5.4 3.3 0 3.5 3.2 3.5 5.6V32H32zM.5 10.6h6.7V32H.5V10.6zM3.8 0C1.8 0 0 1.6 0 3.8 0 6 1.6 7.7 3.8 7.7a3.8 3.8 0 1 0 0-7.7z"/></symbol></defs></svg>